<svg version="1.0" xmlns="http://www.w3.org/2000/svg"
 width="7658.000000pt" height="5068.000000pt" viewBox="0 0 7658.000000 5068.000000"
 preserveAspectRatio="xMidYMid meet">

<g transform="translate(0.000000,5068.000000) scale(0.100000,-0.100000)"
fill="#000000" stroke="none">
<path d="M18902 46171 c13 -21 3448 -5965 7633 -13209 4186 -7244 7612 -13171
7615 -13171 6 0 3274 5747 3277 5763 2 6 -1893 3287 -4211 7291 l-4213 7280
161 3 c88 2 7792 -7 17118 -19 9327 -12 16960 -20 16964 -16 3 3 -794 1381
-1772 3061 l-1779 3055 -20408 1 -20408 0 23 -39z"/>
<path d="M16997 44064 c-20 -33 -3698 -5918 -3737 -5980 -12 -19 884 -1560
10175 -17505 5603 -9616 10193 -17490 10199 -17496 9 -10 1860 3089 7801
13054 4285 7186 7796 13076 7803 13089 l13 24 -3273 0 -3273 0 -4405 -7175
c-2423 -3945 -4408 -7171 -4411 -7167 -3 4 -3796 6570 -8429 14592 -4632 8022
-8426 14589 -8430 14594 -5 4 -19 -9 -33 -30z"/>
<path d="M33412 37751 c2 -6 754 -1295 1673 -2865 l1670 -2856 8418 -2 8418
-3 -8593 -14800 c-4727 -8140 -8597 -14806 -8601 -14812 -7 -10 707 -13 3555
-13 l3563 0 10180 17671 c5599 9720 10182 17676 10183 17680 2 5 -6601 9
-15233 9 -9605 0 -15235 -4 -15233 -9z"/>
</g>
</svg>